<svg width="260" height="272" viewBox="0 0 260 272" fill="none" xmlns="http://www.w3.org/2000/svg">
<rect width="260" height="272" fill="#3B71CA"/>
<g filter="url(#filter0_d_4_4)">
<path d="M34.2841 163V93.1818H81.9432V106.886H51.1591V121.205H78.9091V134.943H51.1591V163H34.2841ZM90.4403 163V93.1818H107.315V121.205H134.827V93.1818H151.668V163H134.827V134.943H107.315V163H90.4403ZM188.946 137.909H202.582L208.378 145.307L215.98 154.034L227.673 168.455H212.401L204.219 158.67L199.378 151.716L188.946 137.909ZM228.151 128.091C228.151 135.773 226.673 142.284 223.719 147.625C220.764 152.966 216.764 157.023 211.719 159.795C206.696 162.568 201.06 163.955 194.81 163.955C188.537 163.955 182.889 162.557 177.866 159.761C172.844 156.966 168.855 152.909 165.901 147.591C162.969 142.25 161.503 135.75 161.503 128.091C161.503 120.409 162.969 113.898 165.901 108.557C168.855 103.216 172.844 99.1591 177.866 96.3864C182.889 93.6136 188.537 92.2273 194.81 92.2273C201.06 92.2273 206.696 93.6136 211.719 96.3864C216.764 99.1591 220.764 103.216 223.719 108.557C226.673 113.898 228.151 120.409 228.151 128.091ZM210.901 128.091C210.901 123.545 210.253 119.705 208.957 116.568C207.685 113.432 205.844 111.057 203.435 109.443C201.048 107.83 198.173 107.023 194.81 107.023C191.469 107.023 188.594 107.83 186.185 109.443C183.776 111.057 181.923 113.432 180.628 116.568C179.355 119.705 178.719 123.545 178.719 128.091C178.719 132.636 179.355 136.477 180.628 139.614C181.923 142.75 183.776 145.125 186.185 146.739C188.594 148.352 191.469 149.159 194.81 149.159C198.173 149.159 201.048 148.352 203.435 146.739C205.844 145.125 207.685 142.75 208.957 139.614C210.253 136.477 210.901 132.636 210.901 128.091Z" fill="black"/>
<path d="M34.2841 163H33.2841V164H34.2841V163ZM34.2841 93.1818V92.1818H33.2841V93.1818H34.2841ZM81.9432 93.1818H82.9432V92.1818H81.9432V93.1818ZM81.9432 106.886V107.886H82.9432V106.886H81.9432ZM51.1591 106.886V105.886H50.1591V106.886H51.1591ZM51.1591 121.205H50.1591V122.205H51.1591V121.205ZM78.9091 121.205H79.9091V120.205H78.9091V121.205ZM78.9091 134.943V135.943H79.9091V134.943H78.9091ZM51.1591 134.943V133.943H50.1591V134.943H51.1591ZM51.1591 163V164H52.1591V163H51.1591ZM35.2841 163V93.1818H33.2841V163H35.2841ZM34.2841 94.1818H81.9432V92.1818H34.2841V94.1818ZM80.9432 93.1818V106.886H82.9432V93.1818H80.9432ZM81.9432 105.886H51.1591V107.886H81.9432V105.886ZM50.1591 106.886V121.205H52.1591V106.886H50.1591ZM51.1591 122.205H78.9091V120.205H51.1591V122.205ZM77.9091 121.205V134.943H79.9091V121.205H77.9091ZM78.9091 133.943H51.1591V135.943H78.9091V133.943ZM50.1591 134.943V163H52.1591V134.943H50.1591ZM51.1591 162H34.2841V164H51.1591V162ZM90.4403 163H89.4403V164H90.4403V163ZM90.4403 93.1818V92.1818H89.4403V93.1818H90.4403ZM107.315 93.1818H108.315V92.1818H107.315V93.1818ZM107.315 121.205H106.315V122.205H107.315V121.205ZM134.827 121.205V122.205H135.827V121.205H134.827ZM134.827 93.1818V92.1818H133.827V93.1818H134.827ZM151.668 93.1818H152.668V92.1818H151.668V93.1818ZM151.668 163V164H152.668V163H151.668ZM134.827 163H133.827V164H134.827V163ZM134.827 134.943H135.827V133.943H134.827V134.943ZM107.315 134.943V133.943H106.315V134.943H107.315ZM107.315 163V164H108.315V163H107.315ZM91.4403 163V93.1818H89.4403V163H91.4403ZM90.4403 94.1818H107.315V92.1818H90.4403V94.1818ZM106.315 93.1818V121.205H108.315V93.1818H106.315ZM107.315 122.205H134.827V120.205H107.315V122.205ZM135.827 121.205V93.1818H133.827V121.205H135.827ZM134.827 94.1818H151.668V92.1818H134.827V94.1818ZM150.668 93.1818V163H152.668V93.1818H150.668ZM151.668 162H134.827V164H151.668V162ZM135.827 163V134.943H133.827V163H135.827ZM134.827 133.943H107.315V135.943H134.827V133.943ZM106.315 134.943V163H108.315V134.943H106.315ZM107.315 162H90.4403V164H107.315V162ZM188.946 137.909V136.909H186.937L188.148 138.512L188.946 137.909ZM202.582 137.909L203.37 137.292L203.069 136.909H202.582V137.909ZM208.378 145.307L207.591 145.924L207.607 145.944L207.624 145.964L208.378 145.307ZM215.98 154.034L216.757 153.404L216.746 153.391L216.734 153.377L215.98 154.034ZM227.673 168.455V169.455H229.772L228.45 167.825L227.673 168.455ZM212.401 168.455L211.633 169.096L211.933 169.455H212.401V168.455ZM204.219 158.67L203.398 159.242L203.423 159.278L203.452 159.312L204.219 158.67ZM199.378 151.716L200.199 151.145L200.187 151.129L200.176 151.113L199.378 151.716ZM223.719 147.625L222.844 147.141L222.844 147.141L223.719 147.625ZM211.719 159.795L211.237 158.919L211.235 158.92L211.719 159.795ZM177.866 159.761L178.353 158.888L178.353 158.888L177.866 159.761ZM165.901 147.591L165.024 148.072L165.026 148.077L165.901 147.591ZM165.901 108.557L165.026 108.073L165.024 108.076L165.901 108.557ZM177.866 96.3864L178.35 97.2618L178.35 97.2618L177.866 96.3864ZM211.719 96.3864L211.235 97.2618L211.237 97.2627L211.719 96.3864ZM223.719 108.557L222.844 109.041L222.844 109.041L223.719 108.557ZM208.957 116.568L208.031 116.944L208.033 116.95L208.957 116.568ZM203.435 109.443L202.875 110.272L202.878 110.274L203.435 109.443ZM186.185 109.443L186.741 110.274L186.741 110.274L186.185 109.443ZM180.628 116.568L179.704 116.186L179.701 116.192L180.628 116.568ZM180.628 139.614L179.701 139.99L179.704 139.995L180.628 139.614ZM186.185 146.739L186.741 145.908L186.741 145.908L186.185 146.739ZM203.435 146.739L202.878 145.908L202.875 145.91L203.435 146.739ZM208.957 139.614L208.033 139.232L208.031 139.238L208.957 139.614ZM188.946 138.909H202.582V136.909H188.946V138.909ZM201.795 138.526L207.591 145.924L209.165 144.69L203.37 137.292L201.795 138.526ZM207.624 145.964L215.226 154.691L216.734 153.377L209.132 144.65L207.624 145.964ZM215.203 154.664L226.897 169.084L228.45 167.825L216.757 153.404L215.203 154.664ZM227.673 167.455H212.401V169.455H227.673V167.455ZM213.168 167.813L204.986 158.029L203.452 159.312L211.633 169.096L213.168 167.813ZM205.039 158.099L200.199 151.145L198.557 152.287L203.398 159.242L205.039 158.099ZM200.176 151.113L189.744 137.306L188.148 138.512L198.58 152.319L200.176 151.113ZM227.151 128.091C227.151 135.646 225.698 141.982 222.844 147.141L224.594 148.109C227.649 142.586 229.151 135.899 229.151 128.091H227.151ZM222.844 147.141C219.975 152.327 216.107 156.243 211.237 158.919L212.2 160.672C217.422 157.803 221.554 153.605 224.594 148.109L222.844 147.141ZM211.235 158.92C206.374 161.604 200.906 162.955 194.81 162.955V164.955C201.213 164.955 207.018 163.533 212.202 160.671L211.235 158.92ZM194.81 162.955C188.691 162.955 183.213 161.593 178.353 158.888L177.38 160.635C182.565 163.521 188.383 164.955 194.81 164.955V162.955ZM178.353 158.888C173.503 156.188 169.644 152.27 166.775 147.105L165.026 148.077C168.066 153.548 172.185 157.744 177.38 160.635L178.353 158.888ZM166.777 147.11C163.945 141.949 162.503 135.624 162.503 128.091H160.503C160.503 135.876 161.993 142.551 165.024 148.072L166.777 147.11ZM162.503 128.091C162.503 120.534 163.945 114.198 166.777 109.038L165.024 108.076C161.993 113.598 160.503 120.284 160.503 128.091H162.503ZM166.776 109.041C169.645 103.854 173.503 99.9377 178.35 97.2618L177.383 95.5109C172.185 98.3805 168.065 102.578 165.026 108.073L166.776 109.041ZM178.35 97.2618C183.211 94.5783 188.69 93.2273 194.81 93.2273V91.2273C188.384 91.2273 182.567 92.649 177.383 95.5109L178.35 97.2618ZM194.81 93.2273C200.906 93.2273 206.374 94.578 211.235 97.2618L212.202 95.5109C207.018 92.6493 201.213 91.2273 194.81 91.2273V93.2273ZM211.237 97.2627C216.107 99.9389 219.975 103.855 222.844 109.041L224.594 108.073C221.554 102.577 217.422 98.3793 212.2 95.51L211.237 97.2627ZM222.844 109.041C225.698 114.2 227.151 120.535 227.151 128.091H229.151C229.151 120.283 227.649 113.595 224.594 108.073L222.844 109.041ZM211.901 128.091C211.901 123.456 211.241 119.477 209.882 116.186L208.033 116.95C209.265 119.932 209.901 123.634 209.901 128.091H211.901ZM209.884 116.192C208.549 112.902 206.593 110.355 203.991 108.612L202.878 110.274C205.095 111.759 206.82 113.961 208.031 116.944L209.884 116.192ZM203.995 108.615C201.417 106.872 198.339 106.023 194.81 106.023V108.023C198.008 108.023 200.68 108.788 202.875 110.272L203.995 108.615ZM194.81 106.023C191.302 106.023 188.226 106.872 185.628 108.612L186.741 110.274C188.962 108.787 191.636 108.023 194.81 108.023V106.023ZM185.628 108.612C183.028 110.354 181.061 112.899 179.704 116.186L181.552 116.95C182.785 113.964 184.523 111.76 186.741 110.274L185.628 108.612ZM179.701 116.192C178.367 119.481 177.719 123.458 177.719 128.091H179.719C179.719 123.633 180.344 119.928 181.554 116.944L179.701 116.192ZM177.719 128.091C177.719 132.724 178.367 136.701 179.701 139.99L181.554 139.238C180.344 136.254 179.719 132.549 179.719 128.091H177.719ZM179.704 139.995C181.061 143.283 183.028 145.828 185.628 147.569L186.741 145.908C184.523 144.422 182.785 142.217 181.552 139.232L179.704 139.995ZM185.628 147.569C188.226 149.309 191.302 150.159 194.81 150.159V148.159C191.636 148.159 188.962 147.395 186.741 145.908L185.628 147.569ZM194.81 150.159C198.339 150.159 201.417 149.31 203.995 147.567L202.875 145.91C200.68 147.394 198.008 148.159 194.81 148.159V150.159ZM203.991 147.569C206.593 145.827 208.549 143.279 209.884 139.99L208.031 139.238C206.82 142.221 205.095 144.423 202.878 145.908L203.991 147.569ZM209.882 139.995C211.241 136.704 211.901 132.725 211.901 128.091H209.901C209.901 132.547 209.265 136.25 208.033 139.232L209.882 139.995Z" fill="black"/>
</g>
<defs>
<filter id="filter0_d_4_4" x="30.2841" y="92.2273" width="201.866" height="84.2273" filterUnits="userSpaceOnUse" color-interpolation-filters="sRGB">
<feFlood flood-opacity="0" result="BackgroundImageFix"/>
<feColorMatrix in="SourceAlpha" type="matrix" values="0 0 0 0 0 0 0 0 0 0 0 0 0 0 0 0 0 0 127 0" result="hardAlpha"/>
<feOffset dy="4"/>
<feGaussianBlur stdDeviation="2"/>
<feComposite in2="hardAlpha" operator="out"/>
<feColorMatrix type="matrix" values="0 0 0 0 0 0 0 0 0 0 0 0 0 0 0 0 0 0 0.25 0"/>
<feBlend mode="normal" in2="BackgroundImageFix" result="effect1_dropShadow_4_4"/>
<feBlend mode="normal" in="SourceGraphic" in2="effect1_dropShadow_4_4" result="shape"/>
</filter>
</defs>
</svg>
