<svg width="203" height="85" viewBox="0 0 203 85" fill="none" xmlns="http://www.w3.org/2000/svg">
<g filter="url(#filter0_d_1_6)">
<path d="M4.28409 71V1.18182H51.9432V14.8864H21.1591V29.2045H48.9091V42.9432H21.1591V71H4.28409ZM60.4403 71V1.18182H77.3153V29.2045H104.827V1.18182H121.668V71H104.827V42.9432H77.3153V71H60.4403ZM158.946 45.9091H172.582L178.378 53.3068L185.98 62.0341L197.673 76.4545H182.401L174.219 66.6705L169.378 59.7159L158.946 45.9091ZM198.151 36.0909C198.151 43.7727 196.673 50.2841 193.719 55.625C190.764 60.9659 186.764 65.0227 181.719 67.7955C176.696 70.5682 171.06 71.9545 164.81 71.9545C158.537 71.9545 152.889 70.5568 147.866 67.7614C142.844 64.9659 138.855 60.9091 135.901 55.5909C132.969 50.25 131.503 43.75 131.503 36.0909C131.503 28.4091 132.969 21.8977 135.901 16.5568C138.855 11.2159 142.844 7.15909 147.866 4.38636C152.889 1.61363 158.537 0.22727 164.81 0.22727C171.06 0.22727 176.696 1.61363 181.719 4.38636C186.764 7.15909 190.764 11.2159 193.719 16.5568C196.673 21.8977 198.151 28.4091 198.151 36.0909ZM180.901 36.0909C180.901 31.5455 180.253 27.7045 178.957 24.5682C177.685 21.4318 175.844 19.0568 173.435 17.4432C171.048 15.8295 168.173 15.0227 164.81 15.0227C161.469 15.0227 158.594 15.8295 156.185 17.4432C153.776 19.0568 151.923 21.4318 150.628 24.5682C149.355 27.7045 148.719 31.5455 148.719 36.0909C148.719 40.6364 149.355 44.4773 150.628 47.6136C151.923 50.75 153.776 53.125 156.185 54.7386C158.594 56.3523 161.469 57.1591 164.81 57.1591C168.173 57.1591 171.048 56.3523 173.435 54.7386C175.844 53.125 177.685 50.75 178.957 47.6136C180.253 44.4773 180.901 40.6364 180.901 36.0909Z" fill="black"/>
<path d="M4.28409 71H3.28409V72H4.28409V71ZM4.28409 1.18182V0.181816H3.28409V1.18182H4.28409ZM51.9432 1.18182H52.9432V0.181816H51.9432V1.18182ZM51.9432 14.8864V15.8864H52.9432V14.8864H51.9432ZM21.1591 14.8864V13.8864H20.1591V14.8864H21.1591ZM21.1591 29.2045H20.1591V30.2045H21.1591V29.2045ZM48.9091 29.2045H49.9091V28.2045H48.9091V29.2045ZM48.9091 42.9432V43.9432H49.9091V42.9432H48.9091ZM21.1591 42.9432V41.9432H20.1591V42.9432H21.1591ZM21.1591 71V72H22.1591V71H21.1591ZM5.28409 71V1.18182H3.28409V71H5.28409ZM4.28409 2.18182H51.9432V0.181816H4.28409V2.18182ZM50.9432 1.18182V14.8864H52.9432V1.18182H50.9432ZM51.9432 13.8864H21.1591V15.8864H51.9432V13.8864ZM20.1591 14.8864V29.2045H22.1591V14.8864H20.1591ZM21.1591 30.2045H48.9091V28.2045H21.1591V30.2045ZM47.9091 29.2045V42.9432H49.9091V29.2045H47.9091ZM48.9091 41.9432H21.1591V43.9432H48.9091V41.9432ZM20.1591 42.9432V71H22.1591V42.9432H20.1591ZM21.1591 70H4.28409V72H21.1591V70ZM60.4403 71H59.4403V72H60.4403V71ZM60.4403 1.18182V0.181816H59.4403V1.18182H60.4403ZM77.3153 1.18182H78.3153V0.181816H77.3153V1.18182ZM77.3153 29.2045H76.3153V30.2045H77.3153V29.2045ZM104.827 29.2045V30.2045H105.827V29.2045H104.827ZM104.827 1.18182V0.181816H103.827V1.18182H104.827ZM121.668 1.18182H122.668V0.181816H121.668V1.18182ZM121.668 71V72H122.668V71H121.668ZM104.827 71H103.827V72H104.827V71ZM104.827 42.9432H105.827V41.9432H104.827V42.9432ZM77.3153 42.9432V41.9432H76.3153V42.9432H77.3153ZM77.3153 71V72H78.3153V71H77.3153ZM61.4403 71V1.18182H59.4403V71H61.4403ZM60.4403 2.18182H77.3153V0.181816H60.4403V2.18182ZM76.3153 1.18182V29.2045H78.3153V1.18182H76.3153ZM77.3153 30.2045H104.827V28.2045H77.3153V30.2045ZM105.827 29.2045V1.18182H103.827V29.2045H105.827ZM104.827 2.18182H121.668V0.181816H104.827V2.18182ZM120.668 1.18182V71H122.668V1.18182H120.668ZM121.668 70H104.827V72H121.668V70ZM105.827 71V42.9432H103.827V71H105.827ZM104.827 41.9432H77.3153V43.9432H104.827V41.9432ZM76.3153 42.9432V71H78.3153V42.9432H76.3153ZM77.3153 70H60.4403V72H77.3153V70ZM158.946 45.9091V44.9091H156.937L158.148 46.5119L158.946 45.9091ZM172.582 45.9091L173.37 45.2924L173.069 44.9091H172.582V45.9091ZM178.378 53.3068L177.591 53.9235L177.607 53.944L177.624 53.9637L178.378 53.3068ZM185.98 62.0341L186.757 61.4043L186.746 61.3906L186.734 61.3773L185.98 62.0341ZM197.673 76.4545V77.4545H199.772L198.45 75.8247L197.673 76.4545ZM182.401 76.4545L181.633 77.096L181.933 77.4545H182.401V76.4545ZM174.219 66.6705L173.398 67.2418L173.423 67.278L173.452 67.312L174.219 66.6705ZM169.378 59.7159L170.199 59.1446L170.187 59.1286L170.176 59.1131L169.378 59.7159ZM193.719 55.625L192.844 55.1409L192.844 55.1409L193.719 55.625ZM181.719 67.7955L181.237 66.9191L181.235 66.92L181.719 67.7955ZM147.866 67.7614L148.353 66.8876L148.353 66.8876L147.866 67.7614ZM135.901 55.5909L135.024 56.0721L135.026 56.0766L135.901 55.5909ZM135.901 16.5568L135.026 16.0728L135.024 16.0756L135.901 16.5568ZM147.866 4.38636L148.35 5.26182L148.35 5.26182L147.866 4.38636ZM181.719 4.38636L181.235 5.26183L181.237 5.26274L181.719 4.38636ZM193.719 16.5568L192.844 17.0409L192.844 17.0409L193.719 16.5568ZM178.957 24.5682L178.031 24.9442L178.033 24.9499L178.957 24.5682ZM173.435 17.4432L172.875 18.2716L172.878 18.274L173.435 17.4432ZM156.185 17.4432L156.741 18.274L156.741 18.274L156.185 17.4432ZM150.628 24.5682L149.704 24.1864L149.701 24.1922L150.628 24.5682ZM150.628 47.6136L149.701 47.9897L149.704 47.9954L150.628 47.6136ZM156.185 54.7386L156.741 53.9078L156.741 53.9078L156.185 54.7386ZM173.435 54.7386L172.878 53.9078L172.875 53.9102L173.435 54.7386ZM178.957 47.6136L178.033 47.2319L178.031 47.2376L178.957 47.6136ZM158.946 46.9091H172.582V44.9091H158.946V46.9091ZM171.795 46.5258L177.591 53.9235L179.165 52.6901L173.37 45.2924L171.795 46.5258ZM177.624 53.9637L185.226 62.6909L186.734 61.3773L179.132 52.65L177.624 53.9637ZM185.203 62.6639L196.897 77.0844L198.45 75.8247L186.757 61.4043L185.203 62.6639ZM197.673 75.4545H182.401V77.4545H197.673V75.4545ZM183.168 75.813L174.986 66.029L173.452 67.312L181.633 77.096L183.168 75.813ZM175.039 66.0992L170.199 59.1446L168.557 60.2872L173.398 67.2418L175.039 66.0992ZM170.176 59.1131L159.744 45.3063L158.148 46.5119L168.58 60.3187L170.176 59.1131ZM197.151 36.0909C197.151 43.6464 195.698 49.9818 192.844 55.1409L194.594 56.1091C197.649 50.5864 199.151 43.899 199.151 36.0909H197.151ZM192.844 55.1409C189.975 60.3269 186.107 64.2429 181.237 66.9191L182.2 68.6718C187.422 65.8026 191.554 61.6049 194.594 56.1091L192.844 55.1409ZM181.235 66.92C176.374 69.6039 170.906 70.9545 164.81 70.9545V72.9545C171.213 72.9545 177.018 71.5325 182.202 68.6709L181.235 66.92ZM164.81 70.9545C158.691 70.9545 153.213 69.5928 148.353 66.8876L147.38 68.6351C152.565 71.5208 158.383 72.9545 164.81 72.9545V70.9545ZM148.353 66.8876C143.503 64.1882 139.644 60.2704 136.775 55.1053L135.026 56.0766C138.066 61.5478 142.185 65.7436 147.38 68.6351L148.353 66.8876ZM136.777 55.1097C133.945 49.9495 132.503 43.6242 132.503 36.0909H130.503C130.503 43.8758 131.993 50.5505 135.024 56.0721L136.777 55.1097ZM132.503 36.0909C132.503 28.5343 133.945 22.1978 136.777 17.038L135.024 16.0756C131.993 21.5976 130.503 28.2839 130.503 36.0909H132.503ZM136.776 17.0409C139.645 11.8537 143.503 7.93768 148.35 5.26182L147.383 3.5109C142.185 6.3805 138.065 10.5781 135.026 16.0728L136.776 17.0409ZM148.35 5.26182C153.211 2.57826 158.69 1.22727 164.81 1.22727V-0.77273C158.384 -0.77273 152.567 0.649006 147.383 3.5109L148.35 5.26182ZM164.81 1.22727C170.906 1.22727 176.374 2.57796 181.235 5.26182L182.202 3.5109C177.018 0.649303 171.213 -0.77273 164.81 -0.77273V1.22727ZM181.237 5.26274C186.107 7.93892 189.975 11.8549 192.844 17.0409L194.594 16.0728C191.554 10.5769 187.422 6.37926 182.2 3.50998L181.237 5.26274ZM192.844 17.0409C195.698 22.2001 197.151 28.5354 197.151 36.0909H199.151C199.151 28.2828 197.649 21.5954 194.594 16.0728L192.844 17.0409ZM181.901 36.0909C181.901 31.4564 181.241 27.4774 179.882 24.1864L178.033 24.9499C179.265 27.9317 179.901 31.6345 179.901 36.0909H181.901ZM179.884 24.1922C178.549 20.9024 176.593 18.3549 173.991 16.6123L172.878 18.274C175.095 19.7588 176.82 21.9612 178.031 24.9442L179.884 24.1922ZM173.995 16.6148C171.417 14.8715 168.339 14.0227 164.81 14.0227V16.0227C168.008 16.0227 170.68 16.7876 172.875 18.2716L173.995 16.6148ZM164.81 14.0227C161.302 14.0227 158.226 14.8723 155.628 16.6123L156.741 18.274C158.962 16.7867 161.636 16.0227 164.81 16.0227V14.0227ZM155.628 16.6123C153.028 18.3537 151.061 20.8991 149.704 24.1864L151.552 24.9499C152.785 21.9645 154.523 19.7599 156.741 18.274L155.628 16.6123ZM149.701 24.1922C148.367 27.4813 147.719 31.4582 147.719 36.0909H149.719C149.719 31.6327 150.344 27.9278 151.554 24.9442L149.701 24.1922ZM147.719 36.0909C147.719 40.7236 148.367 44.7005 149.701 47.9897L151.554 47.2376C150.344 44.254 149.719 40.5491 149.719 36.0909H147.719ZM149.704 47.9954C151.061 51.2827 153.028 53.8281 155.628 55.5695L156.741 53.9078C154.523 52.4219 152.785 50.2173 151.552 47.2319L149.704 47.9954ZM155.628 55.5695C158.226 57.3095 161.302 58.1591 164.81 58.1591V56.1591C161.636 56.1591 158.962 55.3951 156.741 53.9078L155.628 55.5695ZM164.81 58.1591C168.339 58.1591 171.417 57.3103 173.995 55.567L172.875 53.9102C170.68 55.3943 168.008 56.1591 164.81 56.1591V58.1591ZM173.991 55.5695C176.593 53.827 178.549 51.2794 179.884 47.9897L178.031 47.2376C176.82 50.2206 175.095 52.423 172.878 53.9078L173.991 55.5695ZM179.882 47.9954C181.241 44.7044 181.901 40.7254 181.901 36.0909H179.901C179.901 40.5473 179.265 44.2501 178.033 47.2319L179.882 47.9954Z" fill="black"/>
</g>
<defs>
<filter id="filter0_d_1_6" x="0.284088" y="0.227272" width="201.866" height="84.2273" filterUnits="userSpaceOnUse" color-interpolation-filters="sRGB">
<feFlood flood-opacity="0" result="BackgroundImageFix"/>
<feColorMatrix in="SourceAlpha" type="matrix" values="0 0 0 0 0 0 0 0 0 0 0 0 0 0 0 0 0 0 127 0" result="hardAlpha"/>
<feOffset dy="4"/>
<feGaussianBlur stdDeviation="2"/>
<feComposite in2="hardAlpha" operator="out"/>
<feColorMatrix type="matrix" values="0 0 0 0 0 0 0 0 0 0 0 0 0 0 0 0 0 0 0.25 0"/>
<feBlend mode="normal" in2="BackgroundImageFix" result="effect1_dropShadow_1_6"/>
<feBlend mode="normal" in="SourceGraphic" in2="effect1_dropShadow_1_6" result="shape"/>
</filter>
</defs>
</svg>
